<?xml version="1.0" encoding="utf-8"?>
<!-- Generator: Adobe Illustrator 15.1.0, SVG Export Plug-In  -->
<!DOCTYPE svg PUBLIC "-//W3C//DTD SVG 1.1//EN" "http://www.w3.org/Graphics/SVG/1.1/DTD/svg11.dtd" [
	<!ENTITY ns_flows "http://ns.adobe.com/Flows/1.0/">
]>
<svg version="1.1"
	 xmlns="http://www.w3.org/2000/svg" xmlns:xlink="http://www.w3.org/1999/xlink" xmlns:a="http://ns.adobe.com/AdobeSVGViewerExtensions/3.0/"
	 x="0px" y="0px" width="120px" height="132px" viewBox="-5.962 -1.762 120 132" enable-background="new -5.962 -1.762 120 132"
	 xml:space="preserve">
<defs>
</defs>
<circle fill="#FFFFFF" cx="26.646" cy="53.136" r="3.431"/>
<path fill="#FFFFFF" d="M39.363,29.921c0.222,4.507,8.477-9.284,8.074-15.342C47.031,8.526,38.957,21.847,39.363,29.921z"/>
<polygon fill="#FFFFFF" points="2.002,68.74 1.993,68.713 1.987,68.695 1.984,68.69 "/>
<polygon fill="#FFFFFF" points="13.07,5.402 13.101,5.362 13.11,5.353 13.115,5.344 "/>
<polygon fill="#FFFFFF" points="84.136,127.245 83.971,127.348 83.962,127.356 "/>
<polygon fill="#FFFFFF" points="56.466,4.141 56.493,4.195 56.497,4.198 "/>
<polygon fill="#FFFFFF" points="53.572,1.144 53.57,1.144 53.577,1.148 "/>
<path fill="#FFFFFF" d="M100.888,98.054c0.027-0.502,0.091-0.972,0.091-1.499c0.003-4.602-0.979-9.563-3.318-14.704
	c-4.478-9.95-11.98-15.55-19.476-19.114l-0.025-0.014l-0.559-0.267l0.504,0.244c-7.466-3.554-15.057-5.468-20.645-8.169
	l-0.009-0.007c-3.563-1.747-5.565-4.083-6.895-7.514l-0.004-0.012l-0.009-0.027l-0.039-0.104l-0.016-0.043
	c-0.222-0.554-1.23-3.772-1.201-6.071V40.74v-0.027c-0.002-0.653,0.075-1.236,0.179-1.607l0.004-0.018
	c0.344-1.363,1.542-3.542,2.975-6.049l0.004-0.007c1.419-2.542,3.083-5.561,4.028-9.188c1.135-4.392,1.738-8.31,1.74-11.727
	c-0.014-2.9-0.402-5.572-1.718-7.905l-0.009-0.016c-0.678-1.178-1.637-2.27-2.921-3.047c-1.264-0.769-2.699-1.133-4.137-1.142V0.004
	L49.381,0v0.004c-0.009,0-0.032,0.002-0.041,0.002V0.004c-0.011,0-0.021,0.002-0.029,0.002c-0.07,0-0.163,0.016-0.323,0.038
	c-2.921,0.138-5.633,1.454-8.44,3.454l-0.014,0.009c-3.481,2.539-6.013,5.863-7.907,9.313c-0.402-0.947-0.78-1.924-1.254-2.778
	l-0.002-0.004c-1.295-2.313-2.812-4.284-4.606-5.796h-0.002c-1.754-1.474-3.949-2.597-6.481-2.64V1.591l-0.167-0.004
	C17.286,1.589,14.76,3.11,13.11,5.353c-1.641,2.193-2.658,4.989-3.312,8.459v0.006c-0.285,1.544-0.409,3.088-0.409,4.6v0.011
	c0.054,7.462,2.821,14.225,4.751,18.143c-2.552,1.98-6.122,5.197-8.997,9.655l0.14-0.218l-0.143,0.22
	C1.474,51.949,0,56.536,0,60.553c-0.005,3.578,1.198,6.298,1.987,8.143c1.268,3.069,3.524,5.067,5.793,6.089v0.005
	c1.612,0.721,3.044,1.13,4.284,1.515l-0.093,0.624l2.617,0.353c0.195,0.09,0.344,0.16,0.403,0.198l0.004,0.008
	c0.868,0.542,1.695,1.236,2.615,2.569c0.911,1.332,1.878,3.327,2.783,6.356l0.004,0.012c0.911,3.067,2.762,8.104,4.399,13.245v0.006
	c0.809,2.52,1.555,5.074,2.088,7.309c0.538,2.219,0.848,4.168,0.837,5.203v0.049v0.014l-0.019,0.393
	c-0.888,0.955-1.582,2.004-1.966,3.064c-0.488,1.334-0.645,2.639-0.646,3.785l0.002,0.076v-0.016
	c0.007,1.617,0.285,3.018,0.559,4.051c0.14,0.514,0.28,0.941,0.389,1.252l0.138,0.363h0.002l0.034,0.102l0.452,1.092l0.662,1.59
	h16.09h1.246h38.269l1.022-0.641l0.016-0.012c1.578-1.002,4.109-3.107,6.854-6.154c1.433,0.582,2.994,0.936,4.651,0.936
	c7.007-0.002,12.675-5.676,12.677-12.674C108.148,104.383,105.165,100.061,100.888,98.054z M95.477,116.319
	c-1.714,0-3.255-0.652-4.485-1.717l-1.304-1.137l-1.044,1.377c-2.854,3.775-5.957,6.352-7.406,7.344H46.617
	c0.088-0.514,0.235-1.098,0.493-1.678c0.536-1.172,1.381-2.266,3.194-2.943l-1.103-3.033c-2.701,0.965-4.281,2.898-5.045,4.676
	c-0.491,1.115-0.694,2.146-0.787,2.979H31.302c-0.194-0.703-0.402-1.662-0.397-2.645c0.009-1.322,0.33-2.451,1.243-3.232
	l0.246-0.213l-0.242,0.209c0.61-0.529,0.94-1.215,1.128-1.891c0.19-0.682,0.255-1.396,0.255-2.166
	c-0.022-3.701-1.526-9.041-3.201-14.344c-1.677-5.265-3.563-10.416-4.363-13.131c-1.252-4.243-2.793-7.136-4.525-9.218
	c2.211,0.251,3.628,0.384,3.639,0.384l0.292-3.217c-0.002,0-1.092-0.102-2.896-0.3c-1.587-0.175-3.734-0.437-6.135-0.767
	c-1.419-0.631-2.78-0.999-3.938-1.35c-1.228-0.366-2.238-0.732-3.034-1.275c-0.798-0.551-1.451-1.259-2.039-2.604
	c-0.804-1.881-1.521-3.588-1.523-5.875c0-2.548,0.913-6.011,4.225-11.189c2.014-3.15,4.627-5.71,6.729-7.455
	c1.054-0.874,1.976-1.546,2.631-1.998c0.326-0.227,0.583-0.394,0.76-0.507l0.194-0.122l0.056-0.034l1.413-0.841l-0.868-1.399
	L20.9,36.917c-0.61-0.972-5.728-9.941-5.696-18.5c0-1.198,0.097-2.387,0.312-3.544c0.538-2.925,1.379-4.901,2.238-6.027
	c0.886-1.13,1.618-1.426,2.41-1.444c0.762-0.007,1.763,0.373,2.864,1.293c3.323,2.724,6.777,10.016,7.042,19.063
	c-0.597,2.864-0.782,4.792-0.789,4.835l3.214,0.31c0,0,0.025-0.253,0.09-0.748c0.226-1.734,0.952-6.266,2.706-11.09
	c1.743-4.831,4.534-9.898,8.648-12.846c2.418-1.757,4.306-2.419,5.423-2.401c0.522,0,0.881,0.111,1.2,0.301
	c0.463,0.28,0.922,0.825,1.279,1.838c0.355,1.001,0.57,2.416,0.567,4.159c0.002,2.717-0.506,6.221-1.555,10.267
	c-0.71,2.755-2.075,5.326-3.472,7.801c-1.388,2.482-2.819,4.851-3.522,7.387c-0.28,1.033-0.382,2.098-0.382,3.142
	c0.016,4.185,1.591,8.194,1.641,8.348h-0.002c1.727,4.65,4.996,8.416,9.833,10.715c6.411,3.049,13.919,4.928,20.722,8.203
	c6.804,3.286,12.848,7.823,16.695,16.275c2.012,4.435,2.796,8.528,2.799,12.301c0,1.47-0.123,2.889-0.34,4.264l-0.266,1.668
	l1.681,0.189c3.435,0.385,6.104,3.258,6.102,6.779C102.335,113.241,99.27,116.311,95.477,116.319z"/>
<polygon fill="#FFFFFF" points="97.66,81.851 97.66,81.851 97.663,81.855 "/>
</svg>
